<svg id="Layer_1" data-name="Layer 1" xmlns="http://www.w3.org/2000/svg" viewBox="0 0 15 15"><path d="M3.78,1.3h0a.2.2,0,0,1,.13,0c.16.11.13.43-.06.7a.7.7,0,0,1-.51.33.2.2,0,0,1-.13,0c-.16-.11-.13-.43.06-.7a.7.7,0,0,1,.51-.33m0-.1a.78.78,0,0,0-.59.37c-.23.32-.25.7,0,.84a.33.33,0,0,0,.19.06.78.78,0,0,0,.59-.37c.23-.32.25-.69,0-.84a.33.33,0,0,0-.19-.06Z"/><path d="M5.49,1.46c.18,0,.37.21.45.49a.81.81,0,0,1,0,.46c0,.12-.1.2-.19.22h0c-.18,0-.38-.21-.46-.49s0-.63.18-.68h.06m0-.1H5.4c-.24.07-.35.43-.24.81s.32.56.55.56h.08c.24-.07.35-.43.25-.8s-.33-.57-.55-.57Z"/><path d="M7.59.93l0,.1a.29.29,0,0,1,.22.19.81.81,0,0,1,.07.45c0,.31-.22.56-.43.56h0A.28.28,0,0,1,7.25,2a.73.73,0,0,1-.06-.45c0-.31.21-.56.4-.56V.93m0,0c-.24,0-.46.28-.5.65s.12.72.37.75h0c.24,0,.46-.28.51-.64S7.88,1,7.63.93Z"/><path d="M9.34,1.78a.66.66,0,0,1,.51.38c.16.28.16.61,0,.7a.2.2,0,0,1-.11,0,.66.66,0,0,1-.5-.37.89.89,0,0,1-.13-.45.34.34,0,0,1,.13-.26.2.2,0,0,1,.11,0m0-.1a.33.33,0,0,0-.16.05c-.22.12-.24.5,0,.84A.76.76,0,0,0,9.73,3a.29.29,0,0,0,.16,0c.22-.13.24-.5,0-.84a.78.78,0,0,0-.59-.43Z"/><path d="M11.58,1.25l0,.1c.2,0,.33.32.29.65s-.22.56-.43.56h0c-.19,0-.32-.32-.29-.65s.22-.56.41-.56v-.1m0,0c-.24,0-.46.28-.5.65s.11.73.37.76h0c.24,0,.46-.28.51-.65s-.12-.73-.37-.76Z"/><path d="M14.15,11.57a.6.6,0,0,1,.6.61V13A1.76,1.76,0,0,1,13,14.75H2A1.76,1.76,0,0,1,.25,13v-.82a.6.6,0,0,1,.6-.61h13.3m0-.25H.85a.86.86,0,0,0-.85.86V13a2,2,0,0,0,2,2H13a2,2,0,0,0,2-2v-.82a.86.86,0,0,0-.85-.86Z"/><path d="M14.23,6.82a.52.52,0,0,1,.52.52V8.79a.51.51,0,0,1-.52.51H.77a.51.51,0,0,1-.52-.51V7.34a.52.52,0,0,1,.52-.52H14.23m0-.25H.77A.78.78,0,0,0,0,7.34V8.79a.77.77,0,0,0,.77.76H14.23A.77.77,0,0,0,15,8.79V7.34a.78.78,0,0,0-.77-.77Z"/><path d="M7.5.25c3.93,0,7.25,1.56,7.25,3.41,0,.48-.31.89-.68.89H.93c-.37,0-.68-.41-.68-.89C.25,1.81,3.57.25,7.5.25M7.5,0C3.36,0,0,1.64,0,3.66A1.05,1.05,0,0,0,.93,4.8H14.07A1.05,1.05,0,0,0,15,3.66C15,1.64,11.64,0,7.5,0Z"/></svg>