<svg id="Layer_1" data-name="Layer 1" xmlns="http://www.w3.org/2000/svg" viewBox="0 0 15 15"><path d="M12.28.31a.79.79,0,0,1,.54.22l1.65,1.65a.77.77,0,0,1,0,1.09L10.41,7.32a.27.27,0,0,0,0,.36l4.06,4.05a.77.77,0,0,1,0,1.09l-1.65,1.65a.79.79,0,0,1-1.09,0C8,10.75,7.61,10.34,7.46,10.34l-.06,0-.08.05L3.27,14.47a.79.79,0,0,1-1.09,0L.53,12.82a.77.77,0,0,1,0-1.09L4.59,7.68a.25.25,0,0,0,0-.36L.53,3.27a.77.77,0,0,1,0-1.09L2.18.53a.79.79,0,0,1,1.09,0L7.32,4.59a.27.27,0,0,0,.36,0L11.73.53a.8.8,0,0,1,.55-.22m0-.25a1,1,0,0,0-.72.29L7.5,4.41,3.44.35A1,1,0,0,0,2.72.06,1,1,0,0,0,2,.35L.35,2a1,1,0,0,0,0,1.43L4.41,7.5.35,11.56A1,1,0,0,0,.35,13L2,14.65a1,1,0,0,0,.71.29,1,1,0,0,0,.72-.29L7.5,10.59l4.06,4.06a1,1,0,0,0,.72.29,1,1,0,0,0,.71-.29L14.65,13a1,1,0,0,0,0-1.43L10.59,7.5l4.06-4.06a1,1,0,0,0,0-1.43L13,.35a1,1,0,0,0-.71-.29Z"/></svg>